# xmcd
#
# Track frame offsets: 
#        150
#        21948
#        46788
#        67718
#        82238
#        104778
#        123655
#        134358
#        155435
#        170218
#        209160
#
# Disc length: 3233 seconds
#
# Revision: 5
# Processed by: cddbd v1.5.2PL0 Copyright (c) Steve Scherf et al.
# Submitted via: ExactAudioCopy v1.0b3
#
DISCID=a50c9f0b
DTITLE=Chris Rea - Dancing Down The Stony Road [CD1)
DYEAR=2002
DGENRE=Blues
TTITLE0=Easy Rider
TTITLE1=Stony Road
TTITLE2=Dancing the Blues Away
TTITLE3=Catfish Girl
TTITLE4=Burning Feet
TTITLE5=Slow Dance
TTITLE6=Segway
TTITLE7=Mississippi
TTITLE8=So Lonely
TTITLE9=Heading for the City
TTITLE10=Data
EXTD=
EXTT0=
EXTT1=
EXTT2=
EXTT3=
EXTT4=
EXTT5=
EXTT6=
EXTT7=
EXTT8=
EXTT9=
EXTT10=
PLAYORDER=
